<svg width="17" height="15" viewBox="0 0 17 15" fill="none" xmlns="http://www.w3.org/2000/svg">
<path opacity="0.9" d="M3.48249 11.9262L7.30895 7.44868C7.96603 6.34321 9.58125 6.34321 10.2383 7.44868L14.0648 11.9262C14.7312 13.0473 13.9144 14.4611 12.5999 14.4611H4.94734C3.63286 14.4611 2.81609 13.0476 3.48249 11.9262ZM1.70597 4.74377C0.79924 5.10955 0.562757 6.55955 1.17838 7.98235C1.79401 9.40514 3.02784 10.2618 3.93457 9.89598C4.8413 9.5302 5.07779 8.0802 4.46216 6.6574C3.84653 5.23461 2.61271 4.37799 1.70597 4.74377ZM7.92972 2.646C8.37698 4.12882 7.9747 5.54255 7.03166 5.80391C6.08862 6.06527 4.96147 5.07516 4.51421 3.59234C4.06695 2.10952 4.46923 0.695786 5.41227 0.434424C6.35563 0.173062 7.48278 1.16317 7.92972 2.646ZM13.2744 6.6574C12.6591 8.0802 12.8952 9.52989 13.802 9.89598C14.7087 10.2618 15.9428 9.40514 16.5581 7.98235C17.1734 6.55955 16.9373 5.10987 16.0306 4.74377C15.1238 4.37799 13.89 5.23461 13.2744 6.6574ZM12.3239 0.434424C13.267 0.695786 13.6693 2.10952 13.222 3.59234C12.7747 5.07516 11.6479 6.06527 10.7045 5.80391C9.7615 5.54255 9.35922 4.12882 9.80649 2.646C10.2537 1.16317 11.3809 0.173062 12.3239 0.434424Z" fill="#0C2340"/>
</svg>
