<svg width="26" height="23" viewBox="0 0 26 23" fill="none" xmlns="http://www.w3.org/2000/svg">
<path d="M1.49089 1.68337C1.06197 1.68337 0.694336 1.31319 0.694336 0.86076C0.694336 0.42889 1.06197 0.0587158 1.49089 0.0587158H3.57417C3.5946 0.0587158 3.63545 0.0587158 3.65587 0.0587158C4.39115 0.079281 5.04473 0.223238 5.59619 0.572846C6.20892 0.963586 6.65826 1.55998 6.90335 2.44428C6.90335 2.46485 6.90335 2.48541 6.92377 2.50598L7.12802 3.32859H24.9993C25.4487 3.32859 25.7959 3.69876 25.7959 4.13063C25.7959 4.21289 25.7755 4.29515 25.7551 4.37741L23.6718 12.8297C23.5901 13.1999 23.2633 13.4467 22.8956 13.4467H9.82403C10.11 14.5161 10.3959 15.0919 10.784 15.3592C11.2537 15.6677 12.0707 15.6883 13.4391 15.6677H13.4596H22.6914C23.1407 15.6677 23.4879 16.0379 23.4879 16.4698C23.4879 16.9222 23.1203 17.2718 22.6914 17.2718H13.4596C11.7643 17.2924 10.7227 17.2512 9.88531 16.696C9.02748 16.1202 8.57815 15.133 8.12881 13.3439L5.39194 2.91728C5.39194 2.89672 5.39194 2.89672 5.37152 2.87615C5.24897 2.42372 5.04473 2.11524 4.75879 1.95072C4.47285 1.76563 4.08478 1.68337 3.63545 1.68337C3.61502 1.68337 3.5946 1.68337 3.57417 1.68337H1.49089ZM20.3017 18.2178C21.3842 18.2178 22.2625 19.1021 22.2625 20.1921C22.2625 21.282 21.3842 22.1663 20.3017 22.1663C19.2192 22.1663 18.341 21.282 18.341 20.1921C18.341 19.1021 19.2192 18.2178 20.3017 18.2178ZM11.7031 18.2178C12.7856 18.2178 13.6638 19.1021 13.6638 20.1921C13.6638 21.282 12.7856 22.1663 11.7031 22.1663C10.6206 22.1663 9.74234 21.282 9.74234 20.1921C9.74234 19.1021 10.6206 18.2178 11.7031 18.2178ZM7.57735 4.93267L9.39512 11.822H22.2829L23.9781 4.93267H7.57735Z" fill="#0B2240"/>
</svg>
