<svg width="20" height="24" viewBox="0 0 20 24" fill="none" xmlns="http://www.w3.org/2000/svg">
<path d="M1.44238 20.7358C1.44238 17.7865 3.50342 15.2743 6.30443 14.8095L6.55674 14.7676C8.79964 14.3954 11.0851 14.3954 13.328 14.7676L13.5803 14.8095C16.3813 15.2743 18.4424 17.7865 18.4424 20.7358C18.4424 22.0106 17.4485 23.044 16.2225 23.044H3.66225C2.43625 23.044 1.44238 22.0106 1.44238 20.7358Z" stroke="#0B2240" stroke-width="1.5"/>
<path d="M14.9007 5.85651C14.9007 8.51438 12.6808 10.669 9.94241 10.669C7.204 10.669 4.98407 8.51438 4.98407 5.85651C4.98407 3.19864 7.204 1.04401 9.94241 1.04401C12.6808 1.04401 14.9007 3.19864 14.9007 5.85651Z" stroke="#0B2240" stroke-width="1.5"/>
</svg>
