<svg width="41" height="42" viewBox="0 0 41 42" fill="none" xmlns="http://www.w3.org/2000/svg">
<path d="M33.4133 25.191C33.3886 25.3953 33.2897 25.5833 33.1354 25.7192C32.981 25.8551 32.7821 25.9294 32.5766 25.928H29.146C28.9241 25.928 28.7113 26.0162 28.5544 26.1732C28.3974 26.3303 28.3093 26.5433 28.3093 26.7654V40.1639C28.3093 40.386 28.3974 40.599 28.5544 40.7561C28.7113 40.9131 28.9241 41.0013 29.146 41.0013H33.3295C33.4939 41.0013 34.5699 41.0013 35.8594 41.0013C38.6208 41.0013 40.86 38.7629 40.86 36.0015C40.8601 33.0849 40.8601 29.9314 40.8601 29.6963V23.4157C40.8601 23.1079 40.8601 12.3668 40.8601 5.80182C40.8601 3.04039 38.6265 0.805664 35.8651 0.805665C30.0151 0.805666 21.0766 0.805668 20.7788 0.805668H21.2226C20.923 0.805668 11.6713 0.805669 5.69261 0.80567C2.93118 0.80567 0.697568 3.0404 0.69757 5.80183C0.697575 12.3668 0.697584 23.1079 0.697584 23.4157V28.4402C0.697584 28.6892 0.69756 32.6069 0.69754 36.0015C0.697523 38.763 2.93613 41.0013 5.69756 41.0013C8.10479 41.0013 10.5206 41.0013 10.7381 41.0013H20.7788C21.0007 41.0013 21.2136 40.9131 21.3705 40.7561C21.5274 40.599 21.6155 40.386 21.6155 40.1639V26.7654C21.6155 26.5433 21.5274 26.3303 21.3705 26.1732C21.2136 26.0162 21.0007 25.928 20.7788 25.928H17.432C17.21 25.928 16.9972 25.8397 16.8403 25.6827C16.6834 25.5256 16.5952 25.3126 16.5952 25.0905V20.0661C16.5952 19.844 16.6834 19.631 16.8403 19.4739C16.9972 19.3169 17.21 19.2287 17.432 19.2287H20.7788C21.0007 19.2287 21.2136 19.1404 21.3705 18.9834C21.5274 18.8264 21.6155 18.6134 21.6155 18.3913V16.1973C21.6155 13.6698 22.6187 11.2459 24.4044 9.45873C26.1901 7.67156 28.612 6.66754 31.1374 6.66754H33.3296C33.5515 6.66754 33.7643 6.75576 33.9213 6.91281C34.0782 7.06985 34.1663 7.28285 34.1663 7.50495V12.5294C34.1663 12.7515 34.0782 12.9645 33.9213 13.1215C33.7643 13.2786 33.5515 13.3668 33.3296 13.3668H31.1374C30.3873 13.3668 29.668 13.665 29.1376 14.1958C28.6073 14.7266 28.3093 15.4466 28.3093 16.1973V18.3913C28.3093 18.6134 28.3974 18.8264 28.5544 18.9834C28.7113 19.1404 28.9241 19.2287 29.146 19.2287H33.2125C33.3313 19.2278 33.449 19.2523 33.5577 19.3005C33.6663 19.3488 33.7635 19.4196 33.8427 19.5083C33.9218 19.5971 33.9812 19.7017 34.0168 19.8152C34.0524 19.9287 34.0634 20.0485 34.0492 20.1666L33.4133 25.191Z" fill="white"/>
</svg>
