<svg width="41" height="42" viewBox="0 0 41 42" fill="none" xmlns="http://www.w3.org/2000/svg">
<path fill-rule="evenodd" clip-rule="evenodd" d="M20.4289 0.805664C9.33904 0.805664 0.347656 9.80279 0.347656 20.9035C0.347656 29.4183 5.64074 36.6903 13.111 39.6179C12.9353 38.0285 12.7763 35.59 13.1812 33.8549C13.5461 32.2856 15.5358 23.8646 15.5358 23.8646C15.5358 23.8646 14.935 22.6604 14.935 20.8801C14.935 18.0865 16.5532 15.9996 18.568 15.9996C20.28 15.9996 21.1083 17.2876 21.1083 18.8301C21.1083 20.5535 20.0122 23.131 19.4449 25.521C18.9713 27.5207 20.4473 29.1537 22.4186 29.1537C25.9881 29.1537 28.7308 25.387 28.7308 19.9505C28.7308 15.1388 25.2769 11.7741 20.3436 11.7741C14.6304 11.7741 11.2769 16.0633 11.2769 20.4948C11.2769 22.2216 11.9412 24.0756 12.7713 25.0805C12.9353 25.2798 12.9587 25.4557 12.9102 25.6583L12.3529 27.9361C12.2642 28.3045 12.0617 28.3832 11.6802 28.2057C9.17169 27.0367 7.60368 23.3672 7.60368 20.4195C7.60368 14.0803 12.2056 8.25694 20.8724 8.25694C27.8389 8.25694 33.2525 13.2261 33.2525 19.8651C33.2525 26.7922 28.8898 32.366 22.832 32.366C20.7971 32.366 18.8843 31.3092 18.23 30.0581L16.9783 34.8363C16.5248 36.5832 15.3015 38.7721 14.4815 40.1053C16.3625 40.6865 18.3589 41.0013 20.4289 41.0013C31.5188 41.0013 40.5102 32.0025 40.5102 20.9035C40.5102 9.80279 31.5188 0.805664 20.4289 0.805664V0.805664Z" fill="white"/>
</svg>
