<svg width="41" height="34" viewBox="0 0 41 34" fill="none" xmlns="http://www.w3.org/2000/svg">
<path d="M36.074 8.96346C36.0913 9.31695 36.0979 9.67178 36.0979 10.0306C36.0979 20.929 27.8097 33.4939 12.654 33.4939C8.00132 33.4939 3.66865 32.1291 0.0224609 29.7902C0.66778 29.866 1.32239 29.9045 1.98763 29.9045C5.84892 29.9045 9.40217 28.5862 12.2211 26.3749C8.6161 26.3071 5.57407 23.9217 4.52509 20.646C5.02701 20.7443 5.54353 20.7935 6.07465 20.7935C6.8262 20.7935 7.55384 20.6951 8.24564 20.5051C4.47464 19.7476 1.63443 16.412 1.63443 12.42C1.63443 12.3841 1.63443 12.3495 1.63576 12.3137C2.74582 12.9316 4.01654 13.3024 5.36826 13.3462C3.15611 11.8645 1.70215 9.34353 1.70215 6.48105C1.70215 4.97008 2.10846 3.55213 2.81752 2.33484C6.88197 7.32358 12.9541 10.6073 19.803 10.9502C19.6622 10.3482 19.5892 9.71696 19.5892 9.07111C19.5892 4.51825 23.2779 0.825195 27.8296 0.825195C30.1998 0.825195 32.3402 1.8272 33.8433 3.42854C35.7208 3.06043 37.4842 2.37205 39.0762 1.42719C38.4588 3.35412 37.1536 4.97008 35.4513 5.98936C37.1204 5.79002 38.7084 5.34616 40.185 4.691C39.0829 6.34816 37.6847 7.80066 36.074 8.96346Z" fill="white"/>
</svg>
